# xmcd CD database file
#
# Track frame offsets:
#	150
#	12396
#	25012
#	39134
#	53617
#	66942
#	81877
#	95830
#	109991
#	122181
#	137211
#	150899
#	165219
#	179793
#	192174
#	207617
#	221458
#	236126
#	249800
#	268346
#	281939
#	294735
#	310764
#	324715
#
# Disc length: 4543 seconds
#
# Revision: 0
# Processed by: cddbd v1.5.2PL0 Copyright (c) Steve Scherf et al.
# Submitted via: CDex 1.78
#
DISCID=6511bd18
DTITLE=Charlie Parker - Ornithology - 1945-1951
DYEAR=1951
DGENRE=Jazz
TTITLE0=Groovin' high
TTITLE1=Dizzy atmosphere
TTITLE2=Hot house
TTITLE3=Billie's bounce
TTITLE4=Ko-ko
TTITLE5=Now's the time
TTITLE6=Moose the mooche
TTITLE7=A night in Tunisia
TTITLE8=Yardbird suite
TTITLE9=Lover man
TTITLE10=Ornithology
TTITLE11=Cool blues
TTITLE12=Bird of paradise
TTITLE13=Bird's nest
TTITLE14=Embraceable you
TTITLE15=Relaxin' at Camarillo
TTITLE16=My old flame
TTITLE17=Cheryl
TTITLE18=Out of nowhere
TTITLE19=Scrapple from the apple
TTITLE20=Don't blame me
TTITLE21=Just friends
TTITLE22=Parker's mood
TTITLE23=Star eyes
EXTD=YEAR: 1951
EXTT0=
EXTT1=
EXTT2=
EXTT3=
EXTT4=
EXTT5=
EXTT6=
EXTT7=
EXTT8=
EXTT9=
EXTT10=
EXTT11=
EXTT12=
EXTT13=
EXTT14=
EXTT15=
EXTT16=
EXTT17=
EXTT18=
EXTT19=
EXTT20=
EXTT21=
EXTT22=
EXTT23=
PLAYORDER=
